<?xml version="1.0" standalone="no"?>
<!DOCTYPE svg PUBLIC "-//W3C//DTD SVG 20010904//EN"
 "http://www.w3.org/TR/2001/REC-SVG-20010904/DTD/svg10.dtd">
<svg version="1.0" xmlns="http://www.w3.org/2000/svg"
 width="160.000000pt" height="50.000000pt" viewBox="0 0 160.000000 50.000000"
 preserveAspectRatio="xMidYMid meet">

<g transform="translate(0.000000,50.000000) scale(0.100000,-0.100000)"
fill="#000000" stroke="none">
<path d="M467 486 c-156 -56 -212 -242 -112 -377 79 -109 244 -126 343 -36 20
19 22 30 22 119 l0 98 -68 0 c-68 0 -68 0 -85 -35 l-17 -35 55 0 55 0 0 -50
c0 -42 -4 -52 -26 -67 -14 -9 -50 -18 -79 -21 -172 -14 -255 218 -113 319 48
35 134 38 187 8 l41 -23 22 22 21 21 -24 20 c-56 46 -151 62 -222 37z"/>
<path d="M927 486 c-98 -36 -158 -123 -158 -227 -1 -183 181 -301 340 -219 49
24 105 88 121 135 20 62 9 155 -26 211 -56 92 -180 136 -277 100z m169 -81
c72 -42 103 -139 70 -218 -15 -36 -79 -97 -101 -97 -12 0 -15 20 -15 113 0 76
-3 107 -10 97 -5 -8 -10 -61 -10 -117 l0 -103 -30 0 c-64 0 -136 51 -159 113
-16 42 -13 97 8 142 l19 40 1 -76 1 -77 35 0 35 0 -22 31 c-12 17 -17 27 -11
24 7 -4 14 -3 18 3 3 5 -1 10 -10 10 -13 0 -15 10 -13 57 3 50 6 59 28 70 42
21 118 16 166 -12z"/>
<path d="M955 273 c4 -10 10 -26 12 -35 9 -29 27 -21 39 17 9 28 8 35 -2 35
-8 0 -11 -6 -8 -15 4 -8 2 -15 -4 -15 -5 0 -12 7 -16 15 -3 8 -10 15 -17 15
-7 0 -8 -7 -4 -17z"/>
<path d="M1070 285 c0 -9 30 -65 35 -65 5 0 35 56 35 65 0 3 -7 5 -15 5 -9 0
-12 -6 -9 -15 4 -8 2 -15 -4 -15 -5 0 -12 7 -16 15 -5 14 -26 22 -26 10z"/>
<path d="M1219 68 c-10 -18 -8 -24 10 -39 25 -21 48 -16 56 12 14 44 -44 67
-66 27z"/>
</g>
</svg>
